<?xml version="1.0" encoding="UTF-8"?>
<svg id="Calque_2" data-name="Calque 2" xmlns="http://www.w3.org/2000/svg" viewBox="0 0 143.42 115">
  <defs>
    <style>
      .cls-1 {
        fill: #fff;
      }

      .cls-2 {
        fill: #e12722;
      }

      .cls-2, .cls-3 {
        fill-rule: evenodd;
      }

      .cls-3 {
        fill: #973636;
      }

      .cls-4 {
        fill: #fdc85f;
      }
    </style>
  </defs>
  <g id="FRONT">
    <g>
      <g>
        <path class="cls-3" d="m17.25,84.48C7.15,80.27,0,69.78,0,57.5s7.15-22.76,17.25-26.98v-2.34c0-8.83,6.77-16.06,15.04-16.06h21.82l6.97-7.44c5.85-6.25,15.42-6.25,21.27,0l6.97,7.44h21.82c8.27,0,15.04,7.23,15.04,16.06v2.34c10.1,4.22,17.25,14.71,17.25,26.98s-7.15,22.76-17.25,26.98v2.34c0,8.83-6.77,16.06-15.04,16.06h-21.82l-6.97,7.44c-5.85,6.25-15.42,6.25-21.27,0l-6.97-7.44h-21.82c-8.27,0-15.04-7.23-15.04-16.06v-2.34Z"/>
        <path class="cls-2" d="m22.71,81.06v5.1c0,5.86,4.34,11.47,10.47,11.47h23.16l8.06,8.61c4.05,4.32,10.57,4.32,14.62,0l8.06-8.61h23.16c6.13,0,10.47-5.62,10.47-11.47v-5.1l2.6-1.08c8.94-3.73,14.26-12.93,14.26-22.47s-5.32-18.73-14.26-22.47l-2.6-1.08v-5.1c0-5.86-4.34-11.47-10.47-11.47h-23.16l-8.06-8.61c-4.05-4.32-10.57-4.32-14.62,0l-8.06,8.61h-23.16c-6.13,0-10.47,5.61-10.47,11.47v5.1l-2.6,1.08c-8.94,3.73-14.26,12.93-14.26,22.47s5.32,18.74,14.26,22.47l2.6,1.08Z"/>
        <path class="cls-4" d="m71.71,108.2c2.12,0,4.24-.8,5.94-2.39.13-.12.28-.27.45-.45.02-.02.04-.04.06-.06l8-8.54c.25-.27.59-.4.93-.4h0s23.16,0,23.16,0c2.58,0,4.8-1.14,6.4-2.9,1.76-1.93,2.8-4.58,2.8-7.29v-5.1c0-.56.36-1.03.86-1.21l2.52-1.05c4.12-1.72,7.44-4.69,9.74-8.32,2.41-3.81,3.73-8.35,3.73-12.97s-1.31-9.17-3.73-12.97c-2.31-3.64-5.62-6.6-9.74-8.32l-2.6-1.08c-.49-.2-.78-.68-.79-1.18h0v-5.1c0-2.71-1.04-5.37-2.8-7.29-1.61-1.76-3.83-2.9-6.4-2.9h-23.16c-.41,0-.78-.2-1.01-.5l-7.97-8.51h0c-.17-.18-.32-.33-.45-.45-1.7-1.59-3.82-2.39-5.94-2.39h0v-2.55h0c2.74,0,5.47,1.02,7.67,3.08.22.2.41.39.57.56h0s0,0,0,0l7.68,8.2h22.61c3.35,0,6.22,1.47,8.29,3.74,2.18,2.39,3.46,5.66,3.46,9.01v4.25l1.81.76c4.63,1.93,8.34,5.25,10.92,9.31,2.67,4.21,4.13,9.23,4.13,14.34s-1.46,10.12-4.13,14.34c-2.58,4.06-6.29,7.37-10.92,9.31l-1.81.76v4.25c0,3.34-1.28,6.62-3.46,9.01-2.07,2.27-4.94,3.74-8.29,3.74h-22.61l-7.61,8.13s-.04.05-.06.07c-.16.17-.35.36-.57.56-2.2,2.06-4.93,3.09-7.67,3.09v-2.55Zm-47.73-27.14v5.1c0,2.71,1.04,5.37,2.8,7.29,1.61,1.76,3.83,2.9,6.4,2.9h23.16c.41,0,.78.2,1.01.5l7.97,8.51h0c.15.15.3.3.45.45.02.02.04.04.06.06,1.69,1.55,3.78,2.33,5.88,2.33v2.55c-2.71,0-5.41-1.01-7.6-3.02-.03-.02-.05-.04-.08-.07-.19-.18-.38-.37-.56-.56h0s0,0,0,0l-7.68-8.2h-22.61c-3.35,0-6.22-1.47-8.29-3.74-2.18-2.39-3.46-5.66-3.46-9.01v-4.25l-1.81-.76c-4.63-1.93-8.34-5.25-10.92-9.31-2.67-4.21-4.13-9.23-4.13-14.34s1.46-10.12,4.13-14.34c2.58-4.06,6.28-7.37,10.92-9.31l1.81-.76v-4.25c0-3.34,1.28-6.62,3.46-9.01,2.07-2.27,4.94-3.74,8.29-3.74h22.61l7.61-8.13s.04-.05.06-.07c.16-.17.35-.36.57-.56,2.19-2.05,4.93-3.08,7.67-3.08v2.54c-2.11,0-4.23.8-5.94,2.39-.13.12-.28.27-.45.45-.02.02-.04.04-.06.06l-8,8.54c-.25.27-.59.4-.93.4h0s-23.16,0-23.16,0c-2.58,0-4.8,1.14-6.4,2.9-1.76,1.93-2.8,4.58-2.8,7.29v5.1c0,.56-.36,1.04-.86,1.21l-2.52,1.05c-4.12,1.72-7.43,4.69-9.74,8.32-2.41,3.81-3.73,8.35-3.73,12.97s1.31,9.17,3.73,12.97c2.31,3.64,5.62,6.6,9.74,8.32l2.6,1.08c.49.2.78.68.79,1.18h0Z"/>
      </g>
      <g>
        <path class="cls-1" d="m26.47,72.03v-14.34c0-.81-.11-1.47-.34-1.96-.23-.5-.74-.74-1.56-.74h-.27v-.81h7.36c3.72,0,6.51.78,8.37,2.35,1.87,1.57,2.8,3.72,2.8,6.47,0,1.79-.4,3.35-1.2,4.71-.8,1.35-1.98,2.41-3.53,3.18-1.55.77-3.46,1.15-5.74,1.15h-5.9Zm5.82-1.08c1.26,0,2.38-.32,3.35-.95s1.74-1.53,2.3-2.71c.56-1.17.84-2.57.84-4.19s-.28-2.97-.82-4.14c-.55-1.17-1.32-2.08-2.3-2.73s-2.12-.97-3.42-.97c-.4,0-.74,0-1.03.03-.29.02-.69.07-1.22.16v15.31c.4.07.71.12.93.15.23.03.44.04.64.04h.73Z"/>
        <path class="cls-1" d="m60.16,72.14c-.6,0-1.22-.08-1.88-.23s-1.29-.48-1.89-.99c-.6-.51-1.12-1.27-1.56-2.3l-.62-1.51h-7.2l-2.22,4.92h-1.41l7.98-17.86h1.22l6.06,14.45c.32.79.72,1.43,1.19,1.89.47.47,1.01.74,1.62.81v.68c-.14.04-.35.07-.61.09-.26.03-.49.04-.69.04Zm-12.58-6.25h6.11l-2.98-7.06-3.14,7.06Z"/>
        <path class="cls-1" d="m66.51,72.27l-5.84-14.93c-.41-1.03-.83-1.74-1.24-2.14-.41-.4-.89-.63-1.43-.7v-.54c.07,0,.25,0,.53-.03.28-.02.48-.03.61-.03.63,0,1.28.07,1.95.2.67.14,1.3.45,1.89.93.6.49,1.1,1.25,1.52,2.3l3.65,9.33,2.44-6.93-.95-2.41c-.42-1.03-.86-1.74-1.34-2.14-.48-.4-.99-.63-1.53-.7v-.54c.07,0,.23,0,.49-.03.25-.02.44-.03.57-.03.63,0,1.28.07,1.95.22.67.14,1.3.46,1.89.93.6.48,1.1,1.24,1.52,2.29l3.87,9.85,4.63-13.01h1.3l-6.41,18.1h-1.08l-4.17-10.61-3.71,10.61h-1.08Z"/>
        <path class="cls-1" d="m98.73,72.14c-.59,0-1.22-.08-1.88-.23-.66-.15-1.29-.48-1.89-.99s-1.12-1.27-1.56-2.3l-.62-1.51h-7.2l-2.22,4.92h-1.41l7.98-17.86h1.22l6.06,14.45c.32.79.72,1.43,1.19,1.89.47.47,1.01.74,1.62.81v.68c-.14.04-.35.07-.61.09-.26.03-.49.04-.69.04Zm-12.58-6.25h6.11l-2.98-7.06-3.14,7.06Z"/>
        <path class="cls-1" d="m109.47,72.57c-1.41,0-2.7-.25-3.88-.74-1.18-.5-2.21-1.19-3.08-2.07-.88-.88-1.56-1.92-2.04-3.1-.49-1.18-.73-2.46-.73-3.83,0-1.73.37-3.29,1.11-4.68.74-1.39,1.78-2.49,3.12-3.3,1.34-.81,2.91-1.22,4.69-1.22s3.08.22,4.17.66c1.08.44,1.88.95,2.38,1.53.36.45.57,1.04.62,1.76.05.72.08,1.39.08,2h-.81c-.34-1.66-.97-2.86-1.89-3.61-.92-.75-2.16-1.12-3.73-1.12-1.08,0-2,.22-2.75.65s-1.36,1.03-1.84,1.79c-.48.76-.83,1.61-1.04,2.57-.22.96-.32,1.95-.32,2.98,0,2.18.27,3.91.8,5.17.53,1.26,1.25,2.16,2.15,2.69.9.53,1.9.8,3,.8.81,0,1.51-.06,2.08-.19.58-.13,1.1-.3,1.57-.51v-4.82c0-.38.06-.76.18-1.14.12-.38.36-.73.72-1.07s.89-.6,1.58-.8c.69-.2,1.62-.3,2.77-.3v.68c-.61,0-1.06.23-1.33.68-.27.45-.41,1.08-.41,1.89v4.84c-1.05.63-2.15,1.09-3.33,1.38-1.17.29-2.45.43-3.84.43Z"/>
      </g>
      <g id="Dawag">
        <g>
          <path class="cls-1" d="m60.09,43.76c-1.08.68-2.18,1.11-3.29,1.29-1.11.19-2.12.09-3.01-.28-.9-.37-1.56-1.05-1.98-2.03-.43-.98-.49-2.3-.18-3.97.04-.31.09-.61.13-.9.04-.29.05-.61.03-.93,0-.15-.03-.34-.08-.56-.05-.22-.17-.31-.34-.26-1.05.15-1.96.49-2.72,1-.77.51-1.41,1.12-1.93,1.82.26-.81.53-1.61.8-2.39.27-.79.56-1.56.87-2.33.61-.57,1.28-1.05,2-1.46.72-.4,1.57-.68,2.56-.84.13-.02.26.02.39.13.13.11.2.23.2.36-.02.74-.13,1.58-.33,2.52-.2.94-.25,1.83-.16,2.69.11,1.09.45,1.86,1.03,2.31.58.45,1.3.66,2.16.64.86-.02,1.76-.19,2.7-.51.94-.32,1.82-.71,2.64-1.18s1.47-.92,1.95-1.36c.02-.28.03-.66.02-1.11-.01-.46-.03-.92-.07-1.38-.03-.46-.09-.8-.18-1.02-.02-.04-.06-.13-.11-.25-.06-.12-.14-.13-.25-.02-.35.28-.8.51-1.34.69-.55.18-1.08.13-1.61-.13-.31-.15-.46-.45-.48-.9-.01-.45.06-.82.21-1.13.37-.68.73-1.37,1.07-2.08.34-.71.73-1.37,1.16-1.98.37-.5.76-.72,1.16-.64.4.08.79.33,1.16.77.37.44.68.95.93,1.52.25.58.41,1.11.47,1.59.07.66.03,1.41-.1,2.28-.13.86-.34,1.75-.62,2.67s-.61,1.79-.97,2.61c-.36.82-.73,1.49-1.1,2.02-.79,1.14-1.72,2.04-2.8,2.72Z"/>
          <path class="cls-1" d="m72.1,22.63l.92,13.93-2.42,3.87-.92-13.93,2.43-3.87Z"/>
          <path class="cls-1" d="m74.47,45.12c-1.26-.05-2.49-.14-3.69-.25-.11-.02-.16-.09-.16-.21s.04-.2.13-.25c1.7-.96,3.52-1.8,5.44-2.52,1.92-.72,3.82-1.46,5.7-2.23.5-.2.96-.45,1.38-.75.42-.31.79-.64,1.11-1.02.11-.11.13-.3.05-.57-.08-.27-.17-.49-.28-.64-.52.11-1.09.14-1.69.08-.6-.05-1.04-.23-1.33-.54-.24-.28-.35-.61-.33-.97.02-.36.11-.7.26-1.03.37-.72.72-1.45,1.03-2.2.32-.74.74-1.41,1.26-2,.24-.28.55-.36.93-.23.38.13.67.3.87.49.85.85,1.34,1.86,1.47,3.03.13,1.17,0,2.38-.41,3.62-.41,1.25-1.02,2.42-1.83,3.54s-1.77,2.07-2.85,2.87-2.21,1.31-3.39,1.52c-1.2.22-2.43.3-3.69.25Z"/>
          <path class="cls-1" d="m97.16,31.21c.33.77.57,1.47.72,2.13.15.66.23,1.41.23,2.26s-.16,1.75-.47,2.7-.88,1.9-1.69,2.83c-.35.39-.73.77-1.13,1.11-.4.35-.85.64-1.33.89-.5.26-1.17.51-2,.75-.83.24-1.68.46-2.56.67-.87.21-1.62.4-2.23.57l2.42-4.36c.66-.13,1.39-.29,2.2-.49s1.59-.41,2.36-.66,1.42-.48,1.97-.72c.02-.44-.08-1.04-.31-1.82-.23-.78-.46-1.49-.7-2.15l2.52-3.74Z"/>
        </g>
        <path class="cls-1" d="m60.53,25.15l-.85,1.62-1.87-.96.88-1.63,1.84.97Zm2.58-1.05l-.84,1.64-1.86-.95.86-1.64,1.84.95Z"/>
      </g>
    </g>
  </g>
</svg>